<!--?xml version="1.0" standalone="no"?-->              <svg id="sw-js-blob-svg" viewBox="0 0 100 100" xmlns="http://www.w3.org/2000/svg">                    <defs>                         <linearGradient id="sw-gradient" x1="0" x2="1" y1="1" y2="0">                            <stop id="stop1" stop-color="rgba(251.709, 123.84, 63.321, 1)" offset="0%"></stop>                            <stop id="stop2" stop-color="rgba(255, 220.478, 163.495, 1)" offset="100%"></stop>                        </linearGradient>                    </defs>                <path fill="url(#sw-gradient)" d="M18.7,-33.2C24.1,-29.3,28.3,-24,28.9,-18.3C29.5,-12.5,26.7,-6.2,25,-1C23.3,4.3,22.7,8.5,20.8,12.1C18.9,15.6,15.6,18.4,11.9,22.1C8.2,25.7,4.1,30.1,0.3,29.6C-3.5,29.1,-7,23.6,-12.5,21.1C-18.1,18.5,-25.8,18.9,-30,15.9C-34.1,12.9,-34.8,6.4,-34.6,0.1C-34.4,-6.2,-33.2,-12.3,-30,-17.1C-26.8,-21.8,-21.6,-25.1,-16.3,-29C-10.9,-32.8,-5.5,-37.2,0.6,-38.3C6.7,-39.3,13.3,-37,18.7,-33.2Z" width="100%" height="100%" transform="translate(50 50)" stroke-width="0" style="transition: all 0.3s ease 0s;"></path>              </svg>